#!OML:ASF X:\für Bonn\!DataBase\2005_08_12_Daniel\c3d\Daniel.ASF
:FULLY-SPECIFIED
:DEGREES
108
root 7.55171 16.1648 9.85989 888.186 -41.956 -900.508
lowerback 40.8556 3.12698 -4.41324
upperback 9.83513 -1.18701 -4.44013
thorax -8.72023 -1.57444 -1.81202
lowerneck -4.95559 0.715396 -4.98812
upperneck -2.8611 1.12486 1.47499
head -0.0940826 0.575842 1.30563
rclavicle 2.78299e-014 -5.40694e-014
rhumerus -39.9439 4.57056 -93.131
rradius 65.4821
rwrist 2.67266
rhand -28.8981 13.0498
rfingers 7.12502
rthumb -2.25326 -16.918
lclavicle 2.78299e-014 -5.40694e-014
lhumerus -27.2425 19.8467 78.4702
lradius 70.6812
lwrist -8.42664
lhand -26.2532 -0.0365071
lfingers 7.12502
lthumb 0.301194 29.943
rfemur -24.3118 0.476337 19.6709
rtibia 69.6516
rfoot -18.5063 8.12744
rtoes -12.7349
lfemur -15.4063 3.87081 -23.3099
ltibia 63.9504
lfoot -32.9475 -4.03332
ltoes -3.00516
109
root 7.45556 16.1738 9.78298 887.951 -41.772 -900.462
lowerback 40.8769 2.97937 -4.23786
upperback 9.84604 -1.30474 -4.44294
thorax -8.72194 -1.63195 -1.8558
lowerneck -4.9138 0.75235 -5.03204
upperneck -2.85599 1.17634 1.57823
head -0.101857 0.602728 1.34669
rclavicle 6.67916e-014 2.22639e-014
rhumerus -40.2212 4.34052 -93.1501
rradius 65.5821
rwrist 2.85088
rhand -28.9387 13.117
rfingers 7.12502
rthumb -2.2925 -16.8504
lclavicle 6.67916e-014 2.22639e-014
lhumerus -27.1278 19.5037 78.5841
lradius 70.7738
lwrist -8.27445
lhand -26.2185 -0.189157
lfingers 7.12502
lthumb 0.334746 29.7903
rfemur -24.919 0.842829 19.8696
rtibia 68.3617
rfoot -18.4161 8.07683
rtoes -12.7674
lfemur -14.5837 4.09199 -23.2367
ltibia 63.7811
lfoot -33.1789 -4.07972
ltoes -3.0083
110
root 7.35966 16.1833 9.70393 887.764 -41.5597 -900.435
lowerback 40.8205 2.86426 -4.16132
upperback 9.87866 -1.40885 -4.39111
thorax -8.67008 -1.68536 -1.79648
lowerneck -5.04655 0.810941 -5.11812
upperneck -2.7181 1.26811 1.63657
head -0.0408737 0.649021 1.38312
rclavicle 9.22361e-014 4.92986e-014
rhumerus -40.3955 4.15894 -93.098
rradius 65.6174
rwrist 3.22183
rhand -28.9715 13.1988
rfingers 7.12502
rthumb -2.32416 -16.7683
lclavicle 9.22361e-014 4.92986e-014
lhumerus -26.9749 19.261 78.7671
lradius 70.8687
lwrist -8.19597
lhand -26.3088 -0.249516
lfingers 7.12502
lthumb 0.247458 29.7301
rfemur -25.5039 1.19266 20.0568
rtibia 66.99
rfoot -18.3567 8.0905
rtoes -13.0335
lfemur -13.7564 4.35817 -23.1438
ltibia 63.5694
lfoot -33.3216 -4.20378
ltoes -2.77173
111
root 7.26514 16.1956 9.62218 887.562 -41.3996 -900.424
lowerback 40.7738 2.73306 -4.0692
upperback 9.90288 -1.53051 -4.37192
thorax -8.63276 -1.74539 -1.77301
lowerneck -5.0267 0.870106 -5.0979
upperneck -2.6487 1.34757 1.65184
head -0.0253666 0.688813 1.38572
rclavicle 1.19271e-014 -9.54166e-015
rhumerus -40.6736 4.02469 -93.0998
rradius 65.7168
rwrist 3.49379
rhand -29.0084 13.3044
rfingers 7.12502
rthumb -2.35983 -16.6622
lclavicle 1.19271e-014 -9.54166e-015
lhumerus -26.8754 18.9093 78.9095
lradius 70.9776
lwrist -8.03608
lhand -26.4431 -0.381972
lfingers 7.12502
lthumb 0.117777 29.5977
rfemur -26.0018 1.55057 20.2627
rtibia 65.5575
rfoot -18.3334 7.9618
rtoes -13.2736
lfemur -12.904 4.6022 -23.0509
ltibia 63.3158
lfoot -33.4326 -4.35044
ltoes -2.7005
112
root 7.16805 16.2097 9.53936 887.367 -41.2089 -900.39
lowerback 40.6913 2.6299 -4.0093
upperback 9.9209 -1.61591 -4.29375
thorax -8.58695 -1.78793 -1.68528
lowerneck -5.03591 0.92569 -5.11883
upperneck -2.54846 1.42527 1.61293
head 0.00464119 0.727435 1.37857
rclavicle -6.36111e-015 2.38542e-014
rhumerus -40.9595 3.95544 -93.0243
rradius 65.8494
rwrist 3.69171
rhand -28.9831 13.3845
rfingers 7.12502
rthumb -2.33543 -16.5825
lclavicle -6.36111e-015 2.38542e-014
lhumerus -26.7334 18.656 79.1063
lradius 71.0307
lwrist -7.97721
lhand -26.6125 -0.646541
lfingers 7.12502
lthumb -0.0457831 29.3332
rfemur -26.4831 1.88306 20.443
rtibia 64.0538
rfoot -18.2119 7.95197
rtoes -13.2628
lfemur -12.0061 4.90764 -22.9196
ltibia 63.0135
lfoot -33.531 -4.50759
ltoes -2.65342
113
root 7.07148 16.2227 9.45813 887.178 -41.0715 -900.39
lowerback 40.6464 2.4851 -3.85752
upperback 9.95609 -1.73741 -4.31215
thorax -8.54167 -1.84842 -1.73327
lowerneck -5.11134 0.975266 -4.9437
upperneck -2.40046 1.48929 1.56288
head 0.0623795 0.75751 1.33431
rclavicle -1.51076e-014 1.59028e-015
rhumerus -41.2008 3.74541 -93.0478
rradius 65.9638
rwrist 3.82071
rhand -28.8904 13.5092
rfingers 7.12502
rthumb -2.2459 -16.4587
lclavicle -1.51076e-014 1.59028e-015
lhumerus -26.5784 18.2494 79.2219
lradius 71.1376
lwrist -7.89697
lhand -26.8059 -0.795922
lfingers 7.12502
lthumb -0.23265 29.1837
rfemur -26.8806 2.12365 20.5825
rtibia 62.4974
rfoot -18.0433 7.98163
rtoes -13.3219
lfemur -11.1308 5.22642 -22.8141
ltibia 62.7108
lfoot -33.6029 -4.70479
ltoes -2.5834
